<svg width="800" height="200" viewBox="0 0 888 200" version="1.1" xmlns="http://www.w3.org/2000/svg" xmlns:xlink="http://www.w3.org/1999/xlink" xml:space="preserve" xmlns:serif="http://www.serif.com/" style="fill-rule:evenodd;clip-rule:evenodd;stroke-linejoin:round;stroke-miterlimit:2;">
    <g transform="matrix(1,0,0,1,186.899,133.448)">
        <g transform="matrix(128.647,0,0,128.647,0,0)">
            <path d="M0.445,-0.62L0.23,-0.62L0.23,-0.395L0.46,-0.395L0.46,-0.315L0.23,-0.315L0.23,-0.08L0.33,-0.06L0.33,0L0.04,0L0.04,-0.06L0.125,-0.08L0.125,-0.62L0.04,-0.64L0.04,-0.695L0.23,-0.7L0.535,-0.7L0.535,-0.535L0.47,-0.535L0.445,-0.62Z" style="fill:rgb(23,23,23);fill-rule:nonzero;"/>
        </g>
        <g transform="matrix(128.647,0,0,128.647,73.3288,0)">
            <path d="M0.212,-0.77L0.212,-0.08L0.312,-0.055L0.312,0L0.025,0L0.025,-0.055L0.11,-0.08L0.11,-0.69L0.025,-0.71L0.025,-0.765L0.212,-0.77Z" style="fill:rgb(23,23,23);fill-rule:nonzero;"/>
        </g>
        <g transform="matrix(128.647,0,0,128.647,114.11,0)">
            <path d="M0.49,-0.252L0.145,-0.25C0.145,-0.195 0.158,-0.152 0.185,-0.119C0.211,-0.086 0.246,-0.07 0.29,-0.07C0.305,-0.07 0.319,-0.071 0.334,-0.074C0.349,-0.077 0.363,-0.08 0.376,-0.084C0.389,-0.088 0.4,-0.093 0.411,-0.098C0.422,-0.102 0.431,-0.107 0.438,-0.112L0.458,-0.125L0.493,-0.073C0.47,-0.055 0.45,-0.041 0.431,-0.031C0.411,-0.02 0.389,-0.011 0.364,-0.003C0.338,0.006 0.31,0.01 0.28,0.01C0.201,0.01 0.142,-0.014 0.101,-0.062C0.06,-0.109 0.04,-0.174 0.04,-0.257C0.04,-0.298 0.046,-0.336 0.058,-0.371C0.07,-0.406 0.087,-0.436 0.109,-0.461C0.13,-0.486 0.156,-0.505 0.186,-0.519C0.216,-0.533 0.249,-0.54 0.285,-0.54C0.425,-0.54 0.495,-0.462 0.495,-0.305L0.49,-0.252ZM0.149,-0.325L0.389,-0.325C0.389,-0.366 0.38,-0.399 0.363,-0.424C0.346,-0.449 0.318,-0.462 0.279,-0.462C0.241,-0.462 0.211,-0.449 0.188,-0.424C0.165,-0.398 0.152,-0.365 0.149,-0.325Z" style="fill:rgb(23,23,23);fill-rule:nonzero;"/>
        </g>
        <g transform="matrix(128.647,0,0,128.647,182.293,0)">
            <path d="M0.243,-0.53L0.243,-0.47L0.208,-0.464L0.285,-0.335L0.405,-0.525L0.55,-0.53L0.55,-0.47L0.465,-0.455L0.34,-0.27L0.468,-0.078L0.56,-0.055L0.56,0L0.316,0L0.316,-0.055L0.356,-0.067L0.274,-0.199L0.15,0L0.005,0L0.005,-0.055L0.093,-0.078L0.22,-0.265L0.092,-0.456L0.015,-0.47L0.015,-0.525L0.243,-0.53Z" style="fill:rgb(23,23,23);fill-rule:nonzero;"/>
        </g>
        <g transform="matrix(128.647,0,0,128.647,254.978,0)">
            <path d="M0.27,-0.16C0.241,-0.16 0.216,-0.163 0.195,-0.169L0.19,-0.075L0.345,-0.075C0.41,-0.075 0.46,-0.063 0.494,-0.038C0.528,-0.013 0.545,0.024 0.545,0.074C0.545,0.128 0.523,0.171 0.479,0.202C0.435,0.234 0.37,0.25 0.285,0.25C0.125,0.25 0.045,0.202 0.045,0.105C0.045,0.063 0.067,0.027 0.112,-0.002C0.123,-0.009 0.135,-0.015 0.15,-0.02C0.132,-0.023 0.117,-0.029 0.107,-0.039C0.096,-0.049 0.09,-0.06 0.09,-0.073C0.09,-0.095 0.103,-0.127 0.129,-0.169L0.142,-0.19C0.136,-0.192 0.128,-0.198 0.117,-0.208C0.107,-0.218 0.099,-0.228 0.092,-0.238C0.074,-0.266 0.065,-0.302 0.065,-0.345C0.065,-0.408 0.085,-0.457 0.125,-0.49C0.164,-0.523 0.218,-0.54 0.285,-0.54C0.322,-0.54 0.352,-0.535 0.374,-0.526L0.385,-0.521L0.56,-0.525L0.56,-0.47L0.463,-0.456C0.481,-0.432 0.49,-0.398 0.49,-0.355C0.49,-0.29 0.47,-0.241 0.431,-0.209C0.392,-0.176 0.338,-0.16 0.27,-0.16ZM0.32,0L0.21,0C0.207,0.001 0.2,0.005 0.191,0.012C0.181,0.019 0.173,0.026 0.168,0.032C0.153,0.049 0.145,0.069 0.145,0.09C0.145,0.123 0.158,0.145 0.184,0.157C0.209,0.169 0.248,0.175 0.3,0.175C0.4,0.175 0.45,0.143 0.45,0.08C0.45,0.049 0.439,0.028 0.418,0.017C0.396,0.006 0.363,0 0.32,0ZM0.28,-0.47C0.203,-0.47 0.165,-0.43 0.165,-0.35C0.165,-0.313 0.174,-0.284 0.193,-0.263C0.212,-0.241 0.239,-0.23 0.274,-0.23C0.315,-0.23 0.344,-0.239 0.363,-0.259C0.381,-0.278 0.39,-0.308 0.39,-0.35C0.39,-0.43 0.353,-0.47 0.28,-0.47Z" style="fill:rgb(23,23,23);fill-rule:nonzero;"/>
        </g>
        <g transform="matrix(128.647,0,0,128.647,330.237,0)">
            <path d="M0.205,-0.53L0.214,-0.457C0.263,-0.512 0.314,-0.54 0.365,-0.54C0.392,-0.54 0.419,-0.536 0.444,-0.528L0.455,-0.525L0.45,-0.38L0.385,-0.38L0.37,-0.455C0.313,-0.455 0.264,-0.429 0.225,-0.377L0.225,-0.08L0.325,-0.055L0.325,0L0.04,0L0.04,-0.055L0.125,-0.08L0.125,-0.45L0.04,-0.47L0.04,-0.525L0.205,-0.53Z" style="fill:rgb(23,23,23);fill-rule:nonzero;"/>
        </g>
        <g transform="matrix(128.647,0,0,128.647,390.058,0)">
            <path d="M0.17,-0.765C0.213,-0.765 0.235,-0.74 0.235,-0.69C0.235,-0.669 0.228,-0.653 0.213,-0.642C0.198,-0.631 0.183,-0.625 0.166,-0.625C0.148,-0.625 0.133,-0.631 0.122,-0.644C0.111,-0.656 0.105,-0.673 0.105,-0.695C0.105,-0.717 0.111,-0.734 0.124,-0.747C0.136,-0.759 0.151,-0.765 0.17,-0.765ZM0.225,-0.53L0.225,-0.08L0.3,-0.055L0.3,0L0.04,0L0.04,-0.055L0.125,-0.08L0.125,-0.45L0.04,-0.47L0.04,-0.525L0.225,-0.53Z" style="fill:rgb(23,23,23);fill-rule:nonzero;"/>
        </g>
        <g transform="matrix(128.647,0,0,128.647,433.154,0)">
            <path d="M0.505,-0.77L0.505,-0.08L0.59,-0.06L0.59,-0.005L0.42,0L0.412,-0.057C0.367,-0.012 0.312,0.01 0.247,0.01C0.182,0.01 0.133,-0.013 0.098,-0.059C0.063,-0.106 0.045,-0.17 0.045,-0.252C0.045,-0.339 0.067,-0.409 0.112,-0.462C0.157,-0.514 0.223,-0.54 0.31,-0.54C0.343,-0.54 0.374,-0.535 0.405,-0.524L0.405,-0.69L0.32,-0.71L0.32,-0.765L0.505,-0.77ZM0.405,-0.145L0.405,-0.44C0.382,-0.453 0.347,-0.46 0.3,-0.46C0.2,-0.46 0.15,-0.393 0.15,-0.26C0.15,-0.201 0.16,-0.155 0.181,-0.121C0.201,-0.087 0.232,-0.07 0.275,-0.07C0.308,-0.07 0.335,-0.079 0.358,-0.096C0.379,-0.113 0.395,-0.13 0.405,-0.145Z" style="fill:rgb(23,23,23);fill-rule:nonzero;"/>
        </g>
    </g>
</svg>
